<svg width="17" height="17" viewBox="0 0 17 17" fill="none" xmlns="http://www.w3.org/2000/svg">
<path d="M15.6328 15.6606H14.6328V13.1606C14.632 12.4978 14.3684 11.8624 13.8997 11.3938C13.431 10.9251 12.7956 10.6614 12.1328 10.6606V9.66064C13.0607 9.6617 13.9504 10.0308 14.6065 10.6869C15.2627 11.3431 15.6318 12.2327 15.6328 13.1606V15.6606Z" fill="#8E8E93"/>
<path d="M11.6328 15.6606H10.6328V13.1606C10.632 12.4978 10.3684 11.8624 9.8997 11.3938C9.43103 10.9251 8.79561 10.6614 8.13281 10.6606H5.13281C4.47002 10.6614 3.83459 10.9251 3.36592 11.3938C2.89725 11.8624 2.63361 12.4978 2.63281 13.1606V15.6606H1.63281V13.1606C1.63387 12.2327 2.00296 11.3431 2.65911 10.6869C3.31526 10.0308 4.20488 9.6617 5.13281 9.66064H8.13281C9.06075 9.6617 9.95037 10.0308 10.6065 10.6869C11.2627 11.3431 11.6318 12.2327 11.6328 13.1606V15.6606Z" fill="#8E8E93"/>
<path d="M10.6328 1.66064V2.66064C11.2959 2.66064 11.9317 2.92404 12.4006 3.39288C12.8694 3.86172 13.1328 4.4976 13.1328 5.16064C13.1328 5.82369 12.8694 6.45957 12.4006 6.92841C11.9317 7.39725 11.2959 7.66064 10.6328 7.66064V8.66064C11.5611 8.66064 12.4513 8.2919 13.1077 7.63552C13.7641 6.97914 14.1328 6.0889 14.1328 5.16064C14.1328 4.23239 13.7641 3.34215 13.1077 2.68577C12.4513 2.02939 11.5611 1.66064 10.6328 1.66064Z" fill="#8E8E93"/>
<path d="M6.63281 2.66064C7.12727 2.66064 7.61062 2.80727 8.02174 3.08197C8.43286 3.35667 8.75329 3.74712 8.94251 4.20394C9.13173 4.66075 9.18124 5.16342 9.08478 5.64837C8.98831 6.13332 8.75021 6.57878 8.40058 6.92841C8.05095 7.27804 7.60549 7.51614 7.12054 7.61261C6.63559 7.70907 6.13292 7.65956 5.67611 7.47034C5.21929 7.28112 4.82884 6.96069 4.55414 6.54957C4.27944 6.13845 4.13281 5.6551 4.13281 5.16064C4.13281 4.4976 4.39621 3.86172 4.86505 3.39288C5.33389 2.92404 5.96977 2.66064 6.63281 2.66064ZM6.63281 1.66064C5.94058 1.66064 5.26389 1.86592 4.68832 2.2505C4.11275 2.63509 3.66414 3.18171 3.39924 3.82125C3.13433 4.46079 3.06502 5.16453 3.20007 5.84346C3.33511 6.52239 3.66846 7.14603 4.15794 7.63552C4.64742 8.125 5.27106 8.45834 5.95 8.59339C6.62893 8.72844 7.33266 8.65913 7.97221 8.39422C8.61175 8.12932 9.15837 7.68071 9.54296 7.10514C9.92754 6.52957 10.1328 5.85288 10.1328 5.16064C10.1328 4.23239 9.76406 3.34215 9.10769 2.68577C8.45131 2.02939 7.56107 1.66064 6.63281 1.66064Z" fill="#8E8E93"/>
</svg>
